<svg width="14" height="13" viewBox="0 0 14 13" fill="none" xmlns="http://www.w3.org/2000/svg">
<path d="M12.425 0.514041C10.5707 2.11582 9.00179 3.64061 7.56546 5.63C6.93202 6.50745 6.22759 7.54021 5.76713 8.51527C5.50426 9.03231 5.03039 9.84022 4.86884 10.617C3.98528 9.79657 3.03622 8.86537 2.06519 8.13599C1.37307 7.61632 -0.62044 8.67584 0.191029 9.28523C1.64539 10.377 2.8549 11.7368 4.26947 12.8773C4.86115 13.3537 6.17242 12.319 6.48057 11.8849C7.49205 10.4546 7.6303 8.70633 8.36748 7.14623C9.49303 4.76023 11.4892 2.80023 13.46 1.0982C14.7658 -0.117283 13.4172 -0.341471 12.427 0.514041" fill="#FFC7D5"/>
</svg>
