<svg width="17" height="17" viewBox="0 0 17 17" fill="none" xmlns="http://www.w3.org/2000/svg">
<rect x="0.75" y="2.75" width="13.5" height="13.5" stroke="#FFC7D5" stroke-width="1.5"/>
<path d="M15.425 0.514041C13.5707 2.11582 12.0018 3.64061 10.5655 5.63C9.93202 6.50745 9.22759 7.54021 8.76713 8.51527C8.50426 9.03231 8.03039 9.84022 7.86884 10.617C6.98528 9.79656 6.03622 8.86537 5.06519 8.13599C4.37307 7.61632 2.37956 8.67584 3.19103 9.28523C4.64539 10.377 5.8549 11.7368 7.26947 12.8773C7.86115 13.3537 9.17242 12.319 9.48057 11.8849C10.492 10.4547 10.6303 8.70633 11.3675 7.14623C12.493 4.76023 14.4892 2.80023 16.46 1.0982C17.7658 -0.117283 16.4172 -0.341471 15.427 0.514041" fill="#FFC7D5"/>
</svg>
