<svg width="14" height="13" viewBox="0 0 14 13" fill="none" xmlns="http://www.w3.org/2000/svg">
<path d="M10.3952 0C8.72203 0 7.72522 0.840988 7.15562 1.68196C6.58602 0.805948 5.55361 0 3.84481 0C1.5664 0 0 2.06737 0 3.92451C0 5.67654 0.925598 6.65767 2.5988 8.47977C4.16521 10.1968 6.72842 12.8248 6.76402 12.8598C6.79962 12.8949 6.87082 12.9299 6.90642 12.965C6.97762 13 7.01322 13 7.08442 13C7.15562 13 7.22682 13 7.26242 12.965C7.33362 12.9299 7.36922 12.8949 7.40482 12.8598C7.44041 12.8248 9.93243 10.1968 11.4632 8.47977C13.1008 6.65767 13.9908 5.6415 13.9908 3.92451C14.1332 2.03233 12.6024 0 10.3952 0ZM10.8224 7.77896C9.64762 9.07546 7.93883 10.8976 7.19122 11.7035C6.40802 10.8976 4.62802 9.07547 3.45321 7.74393C1.70881 5.85175 1.13921 5.15094 1.13921 3.88948C1.13921 2.73315 2.13601 1.01618 3.91601 1.01618C6.26562 1.01618 6.69281 3.01349 6.69281 3.11861C6.69281 3.15365 6.69281 3.15363 6.69281 3.18867V3.2237C6.69281 3.2237 6.69282 3.25878 6.72842 3.25878C6.72842 3.25878 6.72842 3.29381 6.76402 3.29381L6.79962 3.32884C6.79962 3.32884 6.79962 3.36387 6.83522 3.36387L6.87081 3.39891C6.87081 3.39891 6.87082 3.39894 6.90642 3.43398C6.94202 3.43398 6.94202 3.46901 6.97762 3.46901C6.97762 3.46901 6.97762 3.46901 7.01322 3.46901C7.04882 3.46901 7.04882 3.469 7.08442 3.50405H7.12002C7.12002 3.50405 7.12002 3.50405 7.15562 3.50405H7.19122H7.22681C7.26241 3.50405 7.26242 3.50405 7.29802 3.50405H7.33362C7.36922 3.50405 7.36922 3.50405 7.40482 3.50405H7.44042C7.44042 3.50405 7.47602 3.50405 7.47602 3.46901C7.47602 3.46901 7.51162 3.46902 7.51162 3.43398L7.54722 3.39891L7.58282 3.36387L7.61842 3.32884L7.65402 3.29381L7.68962 3.25878C7.68962 3.25878 7.68962 3.2237 7.72522 3.2237V3.18867C7.72522 3.15363 7.72522 3.15365 7.72522 3.11861C7.72522 3.04853 8.11682 1.01618 10.4308 1.01618C12.1752 1.01618 13.1008 2.69811 13.1008 3.88948C13.0652 5.18598 12.4956 5.88678 10.8224 7.77896Z" fill="#FF6B8E"/>
</svg>
