<svg width="120" height="66" viewBox="0 0 120 66" fill="none" xmlns="http://www.w3.org/2000/svg">
<path d="M3.06 60.915C2.89 60.8017 2.805 60.66 2.805 60.49V59.385L2.975 57.6C3.145 53.35 3.34333 46.7767 3.57 37.88C3.57 37.37 3.62667 36.6617 3.74 35.755C3.74 35.5283 3.68333 35.3017 3.57 35.075C3.51333 34.7917 3.45667 34.5933 3.4 34.48V34.395C3.4 34.2817 3.45667 34.1117 3.57 33.885C3.74 33.6017 3.825 33.375 3.825 33.205C3.88167 31.4483 4.02333 29.0117 4.25 25.895C4.42 22.665 4.73167 19.0667 5.185 15.1V14.59L4.845 14.76C3.20167 16.5167 2.01167 18.1883 1.275 19.775C1.21833 19.8317 1.105 20.0583 0.935 20.455C0.765 20.8517 0.736667 21.2767 0.85 21.73C0.906667 21.8433 0.878333 21.9 0.765 21.9C0.311667 21.9 0.0566667 21.7583 0 21.475V21.135C0 20.7383 0.0283333 20.4267 0.085 20.2C0.311667 19.4633 0.821667 18.415 1.615 17.055C2.465 15.8083 3.485 14.59 4.675 13.4C5.12833 12.9467 5.38333 12.635 5.44 12.465C5.55333 12.295 5.63833 11.9267 5.695 11.36L6.29 7.62L6.545 6.345C6.65833 6.005 6.82833 5.835 7.055 5.835C7.395 5.835 7.565 6.03333 7.565 6.43L7.48 7.79C7.36667 8.47 7.25333 9.43333 7.14 10.68L7.225 10.935C7.395 10.8783 7.565 10.7933 7.735 10.68C7.96167 10.5667 8.13167 10.4817 8.245 10.425C9.265 9.68833 10.285 9.12166 11.305 8.725C12.155 8.385 13.005 8.215 13.855 8.215C15.555 8.215 16.7167 8.98 17.34 10.51C17.5667 11.19 17.68 11.9267 17.68 12.72C17.68 13.1167 17.6233 13.7117 17.51 14.505C17.0567 17.395 15.98 20.3417 14.28 23.345C13.3733 24.9317 12.1267 26.7733 10.54 28.87C10.4267 28.9833 10.3133 29.1533 10.2 29.38C10.37 29.55 10.5967 29.55 10.88 29.38C12.4667 28.9267 13.6567 28.6433 14.45 28.53C15.2433 28.4167 15.8667 28.36 16.32 28.36C16.9433 28.36 17.5667 28.445 18.19 28.615C19.6067 28.955 20.655 29.72 21.335 30.91C22.0717 32.0433 22.525 33.3467 22.695 34.82C22.7517 35.16 22.78 35.6983 22.78 36.435C22.78 37.115 22.7517 37.6533 22.695 38.05C22.695 38.73 22.6667 39.2117 22.61 39.495C22.8367 39.665 23.035 39.665 23.205 39.495C23.4883 39.325 25.6983 37.285 29.835 33.375L34.425 29.04L35.445 28.53C35.8417 28.4167 36.1533 28.4733 36.38 28.7C36.4933 28.7 36.55 28.7567 36.55 28.87C36.55 29.04 36.5217 29.125 36.465 29.125C35.8417 29.465 33.235 31.76 28.645 36.01C25.925 38.6733 24.055 40.3733 23.035 41.11C22.5817 41.45 22.27 41.9317 22.1 42.555C21.4767 45.785 20.57 48.7033 19.38 51.31C18.4733 53.4633 17.2267 55.5033 15.64 57.43C14.9033 58.2233 14.2233 58.8467 13.6 59.3C12.8633 59.81 11.985 60.065 10.965 60.065C10.3983 60.065 9.945 60.0083 9.605 59.895C8.18833 59.555 7.48 58.62 7.48 57.09C7.48 56.3533 7.62167 55.6167 7.905 54.88C8.35833 53.86 9.01 52.7267 9.86 51.48C11.39 49.3267 13.2883 47.2867 15.555 45.36C16.8017 44.2833 18.0483 43.2917 19.295 42.385C19.8617 41.9317 20.145 41.45 20.145 40.94C20.2017 40.3733 20.2583 39.835 20.315 39.325C20.4283 38.7583 20.5133 38.22 20.57 37.71C20.6833 35.9533 20.5417 34.395 20.145 33.035C19.8617 32.185 19.4933 31.3917 19.04 30.655C18.3033 29.7483 17.34 29.3233 16.15 29.38C12.6933 29.6633 9.86 30.655 7.65 32.355C7.36667 32.5817 7.02667 32.8933 6.63 33.29C6.29 33.63 6.035 33.9133 5.865 34.14C5.63833 34.31 5.525 34.6217 5.525 35.075C5.525 37.0017 5.49667 38.475 5.44 39.495L5.015 54.965C4.90167 57.2317 4.73167 58.9317 4.505 60.065C4.44833 60.4617 4.27833 60.745 3.995 60.915C3.76833 61.0283 3.45667 61.0283 3.06 60.915ZM5.865 31.42C5.92167 31.5333 6.035 31.505 6.205 31.335L6.375 31.165C8.98167 28.275 11.135 25.3 12.835 22.24C13.9683 20.2567 14.8467 17.99 15.47 15.44C15.7533 14.1933 15.895 13.0883 15.895 12.125C15.7817 11.1617 15.555 10.3967 15.215 9.83C14.705 9.09333 14.025 8.81 13.175 8.98C12.7783 9.03667 12.1833 9.235 11.39 9.575C10.54 10.0283 9.32167 10.8217 7.735 11.955C7.16833 12.4083 6.85667 12.975 6.8 13.655C6.57333 16.9983 6.375 19.605 6.205 21.475L5.95 26.83H5.865L5.78 30.74V31.25C5.78 31.3633 5.80833 31.42 5.865 31.42ZM11.305 58.96C11.815 58.6767 12.24 58.3367 12.58 57.94C13.26 57.3733 13.94 56.58 14.62 55.56C16.66 52.67 18.2467 49.0433 19.38 44.68V44.17C19.1533 44.17 18.8983 44.3117 18.615 44.595C16.8017 46.0683 15.4983 47.23 14.705 48.08C13.515 49.27 12.3533 50.715 11.22 52.415C10.5967 53.265 10.0867 54.2 9.69 55.22C9.46333 55.9 9.35 56.4667 9.35 56.92C9.35 57.77 9.66167 58.4217 10.285 58.875C10.625 59.1017 10.965 59.13 11.305 58.96ZM36.7532 40.685C35.1099 40.515 34.0049 39.6083 33.4382 37.965C33.2682 37.455 33.1832 36.6333 33.1832 35.5V35.075C33.1832 34.565 33.2965 33.8567 33.5232 32.95C34.0332 30.9667 34.7699 29.0683 35.7332 27.255C36.6399 25.725 37.5749 24.5917 38.5382 23.855C39.3315 23.175 40.2665 22.8917 41.3432 23.005C42.5332 23.175 42.9582 23.8267 42.6182 24.96C42.5615 25.2433 42.3349 25.7533 41.9382 26.49C41.1449 27.7367 40.3515 28.7 39.5582 29.38C38.5382 30.4567 37.4332 31.4767 36.2432 32.44C35.8465 32.7233 35.6482 33.0067 35.6482 33.29C35.5349 34.1967 35.4782 34.8767 35.4782 35.33C35.4782 35.9533 35.5632 36.605 35.7332 37.285C35.8465 37.7383 35.9599 38.1067 36.0732 38.39C36.5832 39.2967 37.2349 39.75 38.0282 39.75C38.3682 39.75 38.6232 39.7217 38.7932 39.665C39.4165 39.5517 40.0965 39.2683 40.8332 38.815C42.1365 38.0783 43.3832 37.2 44.5732 36.18C47.7465 33.3467 50.0415 31.1367 51.4582 29.55C51.9115 29.0967 52.3082 28.785 52.6482 28.615C52.9315 28.5017 53.0732 28.615 53.0732 28.955V29.21C53.0732 29.38 52.9882 29.6067 52.8182 29.89L51.7982 31.08C50.2115 32.7233 47.8315 34.9617 44.6582 37.795C43.9782 38.4183 42.9582 39.0983 41.5982 39.835C40.5215 40.4583 39.2749 40.77 37.8582 40.77L36.7532 40.685ZM36.2432 31.08C36.2999 31.0233 36.3282 31.0233 36.3282 31.08C36.3849 31.08 36.4132 31.0517 36.4132 30.995C38.2832 29.465 39.7565 27.68 40.8332 25.64C41.0032 25.3567 41.1449 25.0167 41.2582 24.62C41.2582 24.2233 41.1732 23.9683 41.0032 23.855C40.7765 23.685 40.5215 23.7417 40.2382 24.025C39.5582 24.4217 38.9065 25.1017 38.2832 26.065C37.4899 27.255 36.8099 28.785 36.2432 30.655V31.08ZM52.5068 50.29C51.9968 50.1767 51.7134 49.9217 51.6568 49.525L51.4018 47.23C51.3451 45.9833 51.3734 44.1133 51.4868 41.62L51.9118 31.08L51.9968 29.38C52.0534 28.8133 52.1101 27.7933 52.1668 26.32C52.2801 24.79 52.4218 23.43 52.5918 22.24L52.6768 21.56C52.7334 21.3333 52.9034 21.22 53.1868 21.22C53.4701 21.22 53.6118 21.3333 53.6118 21.56C53.6684 21.8433 53.6968 22.24 53.6968 22.75L53.5268 26.83L53.2718 34.65L53.0168 44.34V44.765C53.0168 45.105 53.0734 45.3883 53.1868 45.615C53.3568 45.3317 53.4984 44.9633 53.6118 44.51L55.3968 38.05C55.9068 36.4633 56.3318 35.33 56.6718 34.65C56.9551 33.97 57.3518 33.375 57.8618 32.865C58.3718 32.4683 58.8534 32.2983 59.3068 32.355C59.9301 32.355 60.3551 32.61 60.5818 33.12C60.6384 33.29 60.7234 33.4883 60.8368 33.715C60.9501 33.9417 61.0634 34.1967 61.1768 34.48L61.8568 36.605C62.0834 37.1717 62.3384 37.5683 62.6218 37.795C62.7351 37.795 63.5284 36.945 65.0018 35.245C66.5318 33.4883 68.1468 31.505 69.8468 29.295C70.1301 28.8983 70.4984 28.7 70.9518 28.7C71.0651 28.7 71.1501 28.7567 71.2068 28.87C71.3201 28.9267 71.3484 29.0117 71.2918 29.125L71.0368 29.635C70.0734 31.0517 68.7701 32.78 67.1268 34.82C65.4834 36.8033 64.1518 38.1917 63.1318 38.985C62.9618 39.0417 62.7068 39.07 62.3668 39.07C61.5168 39.07 60.8651 38.7017 60.4118 37.965C60.1851 37.5683 59.9584 36.9733 59.7318 36.18L59.3068 34.65C59.3068 34.5367 59.2784 34.395 59.2218 34.225C59.2218 33.9983 59.1084 33.8567 58.8818 33.8C58.7118 33.8 58.4851 34.055 58.2018 34.565C57.6351 35.5283 57.2101 36.6617 56.9268 37.965L54.1218 48.08C53.8384 48.9867 53.6684 49.525 53.6118 49.695C53.4418 50.0917 53.0734 50.29 52.5068 50.29ZM71.4505 23.43C71.2238 23.2033 71.1105 23.09 71.1105 23.09C71.1105 23.0333 71.0821 22.9767 71.0255 22.92C71.0255 22.8067 71.0538 22.6933 71.1105 22.58L71.6205 19.18C71.7338 18.7833 71.9321 18.585 72.2155 18.585H72.3855C72.5555 18.585 72.6971 18.6417 72.8105 18.755C72.9238 18.8683 72.9521 19.01 72.8955 19.18C72.7821 20.03 72.5555 21.2483 72.2155 22.835L72.0455 23.26C71.8755 23.43 71.6771 23.4867 71.4505 23.43ZM72.3855 42.13C72.2155 42.1867 71.9888 42.215 71.7055 42.215C71.0255 42.215 70.5438 41.8467 70.2605 41.11C70.0338 40.43 69.8638 39.3817 69.7505 37.965C69.6371 36.945 69.5805 36.0383 69.5805 35.245C69.5805 32.6383 69.8355 30.57 70.3455 29.04L70.6005 28.19C70.7138 28.02 70.8838 27.935 71.1105 27.935C71.3938 27.935 71.5355 28.0483 71.5355 28.275V29.295C71.3088 30.3717 71.1955 31.8733 71.1955 33.8C71.1955 35.9533 71.3088 37.5967 71.5355 38.73C71.6488 39.6367 71.8188 40.345 72.0455 40.855C72.3288 40.685 72.6121 40.4017 72.8955 40.005C73.4621 39.0983 73.8588 38.4183 74.0855 37.965L77.4005 32.015L78.5055 29.975C78.8455 29.295 79.2138 28.87 79.6105 28.7C79.6671 28.6433 79.7805 28.615 79.9505 28.615C80.1771 28.7283 80.2338 28.87 80.1205 29.04L80.0355 29.55C79.8088 29.89 79.6671 30.145 79.6105 30.315L77.4855 34.31L76.2955 36.605C76.0688 37.115 75.6721 37.88 75.1055 38.9C74.5388 40.0333 74.0288 40.8267 73.5755 41.28C73.1788 41.79 72.7821 42.0733 72.3855 42.13ZM79.3993 59.895C79.0593 59.3283 78.8326 58.875 78.7193 58.535C77.8126 56.2117 77.3026 53.52 77.1893 50.46C77.1893 45.19 77.3593 40.8267 77.6993 37.37C78.2093 31.7033 79.0026 26.32 80.0793 21.22C80.986 16.3467 81.9493 11.8983 82.9693 7.875V7.79L83.1393 7.11C83.1393 6.88333 82.8276 6.79833 82.2043 6.855C76.7643 7.195 72.7976 7.42166 70.3043 7.535C69.9076 7.59167 69.3126 7.62 68.5193 7.62C67.046 7.62 65.4593 7.47833 63.7593 7.195C62.9093 7.025 62.0593 6.77 61.2093 6.43C60.3593 5.92 59.8776 5.325 59.7643 4.645C59.5943 4.24833 59.5943 3.88 59.7643 3.54C59.9343 3.25666 60.1893 3.05833 60.5293 2.945C60.8693 2.945 61.096 3.17166 61.2093 3.625C61.2093 3.90833 61.0393 4.10666 60.6993 4.22C60.586 4.22 60.5293 4.27666 60.5293 4.39C60.4726 4.44667 60.4726 4.53166 60.5293 4.645C60.8126 4.92833 61.2943 5.18333 61.9743 5.41C63.2776 5.86333 64.5526 6.11833 65.7993 6.175C66.4793 6.23166 67.4993 6.26 68.8593 6.26C69.936 6.26 71.6076 6.20333 73.8743 6.09C76.481 5.86333 78.436 5.72166 79.7393 5.665L83.1393 5.41C83.4226 5.41 83.6493 5.24 83.8193 4.9C83.876 4.61666 83.961 4.27666 84.0743 3.88C84.1876 3.42666 84.3576 2.91666 84.5843 2.35C84.8676 1.5 85.066 0.961663 85.1793 0.734996L85.5193 0.309996C85.746 0.196664 85.9443 0.168331 86.1143 0.224997C86.2843 0.394998 86.341 0.593333 86.2843 0.82L86.0293 2.01L85.3493 4.56V5.07C85.576 5.18333 85.8026 5.24 86.0293 5.24C86.256 5.18333 86.3976 5.155 86.4543 5.155L94.1043 4.22L103.369 3.115C105.126 2.88833 107.761 2.605 111.274 2.265C112.124 2.15166 113.456 2.03833 115.269 1.925H115.949C116.459 1.925 117.111 1.98166 117.904 2.095C118.131 2.15166 118.471 2.29333 118.924 2.52C119.434 2.86 119.689 3.31333 119.689 3.88V4.05C119.689 4.50333 119.434 4.815 118.924 4.985C118.754 5.09833 118.471 5.155 118.074 5.155C117.904 5.155 117.819 5.07 117.819 4.9C117.819 4.78666 117.848 4.72999 117.904 4.72999L118.329 4.475L118.754 4.22L119.009 3.965C119.009 3.795 118.924 3.68166 118.754 3.625C118.358 3.455 117.933 3.37 117.479 3.37C116.516 3.31333 115.128 3.34166 113.314 3.455L102.434 4.72999L92.9993 5.835L86.8793 6.43C86.5393 6.43 86.2843 6.45833 86.1143 6.515C85.8876 6.515 85.6326 6.54333 85.3493 6.6C85.066 6.6 84.8676 6.71333 84.7543 6.94C84.6976 7.16666 84.641 7.50666 84.5843 7.96C82.8276 16.29 81.581 22.75 80.8443 27.34C80.3343 30.9667 79.881 35.1033 79.4843 39.75C79.2576 43.7167 79.1443 46.72 79.1443 48.76C79.1443 51.1967 79.3426 53.4067 79.7393 55.39C79.9093 56.2967 80.2776 57.4583 80.8443 58.875C80.901 59.045 81.0426 59.3 81.2693 59.64C81.326 59.81 81.4393 59.81 81.6093 59.64C81.6093 59.64 81.751 59.4983 82.0343 59.215C82.5443 58.3083 82.9693 57.43 83.3093 56.58C84.896 53.01 86.426 48.7033 87.8993 43.66L88.6643 41.025C90.1376 35.8117 91.271 31.9017 92.0643 29.295C92.1776 28.5583 92.376 28.0767 92.6593 27.85C92.716 27.7933 92.8293 27.765 92.9993 27.765C93.1126 27.765 93.1693 27.8217 93.1693 27.935V28.36C93.1693 28.6433 93.1126 29.0117 92.9993 29.465C91.9793 33.2617 91.271 35.755 90.8743 36.945C90.1376 39.7217 88.976 43.8867 87.3893 49.44C86.6526 51.8767 85.8026 54.37 84.8393 56.92C84.2726 58.1667 83.8193 59.1017 83.4793 59.725C83.2526 60.1217 82.941 60.4333 82.5443 60.66C82.2043 60.8867 81.836 61 81.4393 61C81.0426 61 80.646 60.915 80.2493 60.745C79.9093 60.5183 79.626 60.235 79.3993 59.895ZM116.473 28.87C116.643 28.9833 116.643 29.125 116.473 29.295C116.359 29.5217 116.133 29.8617 115.793 30.315L110.438 36.52C107.038 40.5433 104.034 44.595 101.428 48.675C100.974 49.4683 100.691 50.0917 100.578 50.545C99.7842 53.2083 98.7926 56.0133 97.6026 58.96C97.0359 60.2067 96.5826 61.1133 96.2426 61.68C95.7892 62.36 95.4209 62.8133 95.1376 63.04C94.6842 63.3233 94.4292 63.465 94.3726 63.465H93.8626C93.2392 63.465 92.9559 63.0683 93.0126 62.275C93.0126 61.935 93.1259 61.3683 93.3526 60.575C93.6926 59.555 94.1176 58.6483 94.6276 57.855C95.9309 55.475 97.2059 53.2933 98.4526 51.31C98.8492 50.7433 99.1326 50.0917 99.3026 49.355C100.833 43.6883 102.164 37.4267 103.298 30.57C103.354 30.2867 103.411 29.9183 103.468 29.465C103.581 28.955 103.609 28.5017 103.553 28.105C103.326 28.105 103.156 28.19 103.043 28.36C102.986 28.53 102.929 28.6433 102.873 28.7L100.153 32.865C99.4159 33.9417 98.6509 34.8483 97.8576 35.585C97.4042 36.0383 96.8659 36.3783 96.2426 36.605C95.8459 36.775 95.3642 36.8033 94.7976 36.69C94.1176 36.52 93.6076 36.095 93.2676 35.415C92.9842 34.735 92.8426 34.055 92.8426 33.375C92.7292 32.185 92.8426 30.4 93.1826 28.02C93.2959 27.6233 93.4659 27.3967 93.6926 27.34C94.0326 27.34 94.2309 27.595 94.2876 28.105L94.2026 29.295C94.2592 29.6917 94.2876 30.2867 94.2876 31.08V32.865C94.4009 33.9417 94.6559 34.82 95.0526 35.5C95.2226 35.8967 95.4776 35.9817 95.8176 35.755L97.0076 34.735C97.5742 34.225 98.3109 33.3467 99.2176 32.1C100.124 30.8533 101.428 28.9833 103.128 26.49C103.468 25.98 103.666 25.6967 103.723 25.64C103.893 25.4133 104.148 25.3 104.488 25.3C104.884 25.3 105.083 25.4983 105.083 25.895C105.083 26.575 105.054 27.085 104.998 27.425C104.714 30.5417 104.119 34.31 103.213 38.73C102.646 41.6767 102.193 43.8867 101.853 45.36V45.87C102.079 45.7567 102.334 45.4733 102.618 45.02C105.054 41.62 107.463 38.56 109.843 35.84C112.449 32.8933 114.348 30.6267 115.538 29.04C115.651 28.8133 115.821 28.7 116.048 28.7C116.218 28.7 116.359 28.7567 116.473 28.87ZM97.0076 55.815C97.0076 55.815 97.0076 55.8433 97.0076 55.9V55.815ZM94.9676 61.17C95.4776 60.15 96.1292 58.62 96.9226 56.58C96.9792 56.4667 97.0076 56.2683 97.0076 55.985C96.1576 57.4017 95.5342 58.535 95.1376 59.385C94.7409 60.1783 94.5142 60.9433 94.4576 61.68C94.6276 61.68 94.7409 61.595 94.7976 61.425C94.8542 61.3117 94.9109 61.2267 94.9676 61.17Z" fill="black"/>
<path d="M36.776 58C36.9627 58 37.128 58.016 37.272 58.048C37.4213 58.08 37.5333 58.1093 37.608 58.136V58.912H36.84V58.4C36.664 58.4 36.5093 58.416 36.376 58.448C36.248 58.48 36.1413 58.5413 36.056 58.632C35.9707 58.7227 35.9067 58.848 35.864 59.008C35.8213 59.1627 35.8 59.368 35.8 59.624V59.8H36.824V60.312H35.8V63.6H36.656V64H34.368V63.6H34.96V60.312H34.28V59.8H34.96V59.672C34.96 59.1333 35.12 58.72 35.44 58.432C35.7653 58.144 36.2107 58 36.776 58ZM37.2819 61.904C37.2819 61.552 37.3325 61.24 37.4339 60.968C37.5352 60.696 37.6765 60.4693 37.8579 60.288C38.0445 60.1013 38.2685 59.96 38.5299 59.864C38.7965 59.768 39.0899 59.72 39.4099 59.72C39.7832 59.72 40.1032 59.7733 40.3699 59.88C40.6419 59.9813 40.8632 60.128 41.0339 60.32C41.2045 60.5067 41.3299 60.736 41.4099 61.008C41.4952 61.2747 41.5379 61.5733 41.5379 61.904C41.5379 62.256 41.4872 62.568 41.3859 62.84C41.2899 63.1067 41.1485 63.3333 40.9619 63.52C40.7805 63.7013 40.5565 63.84 40.2899 63.936C40.0285 64.032 39.7352 64.08 39.4099 64.08C39.0472 64.08 38.7325 64.0293 38.4659 63.928C38.1992 63.8213 37.9779 63.6747 37.8019 63.488C37.6259 63.296 37.4952 63.0667 37.4099 62.8C37.3245 62.5333 37.2819 62.2347 37.2819 61.904ZM38.1859 61.904C38.1859 62.16 38.2099 62.3973 38.2579 62.616C38.3059 62.8347 38.3832 63.024 38.4899 63.184C38.6019 63.344 38.7432 63.472 38.9139 63.568C39.0899 63.6587 39.3032 63.704 39.5539 63.704C39.8685 63.704 40.1272 63.56 40.3299 63.272C40.5325 62.984 40.6339 62.528 40.6339 61.904C40.6339 61.648 40.6099 61.4107 40.5619 61.192C40.5139 60.968 40.4365 60.776 40.3299 60.616C40.2285 60.4507 40.0952 60.3227 39.9299 60.232C39.7699 60.1413 39.5725 60.096 39.3379 60.096C38.9859 60.096 38.7059 60.24 38.4979 60.528C38.2899 60.816 38.1859 61.2747 38.1859 61.904ZM44.1704 60.52C44.0478 60.584 43.9464 60.6587 43.8664 60.744C43.7864 60.8293 43.7011 60.952 43.6104 61.112V63.6H44.3144V64H42.1784V63.6H42.7704V60.2H42.1784V59.8H43.6104V60.608H43.6424C43.7331 60.432 43.8398 60.28 43.9624 60.152C44.0851 60.0187 44.2238 59.9013 44.3784 59.8H45.1464V60.52H44.1704ZM49.9387 64H47.9147V63.6H48.5067V58.4H47.8267V58H49.3467V63.6H49.9387V64ZM50.6256 61.904C50.6256 61.552 50.6763 61.24 50.7776 60.968C50.879 60.696 51.0203 60.4693 51.2016 60.288C51.3883 60.1013 51.6123 59.96 51.8736 59.864C52.1403 59.768 52.4336 59.72 52.7536 59.72C53.127 59.72 53.447 59.7733 53.7136 59.88C53.9856 59.9813 54.207 60.128 54.3776 60.32C54.5483 60.5067 54.6736 60.736 54.7536 61.008C54.839 61.2747 54.8816 61.5733 54.8816 61.904C54.8816 62.256 54.831 62.568 54.7296 62.84C54.6336 63.1067 54.4923 63.3333 54.3056 63.52C54.1243 63.7013 53.9003 63.84 53.6336 63.936C53.3723 64.032 53.079 64.08 52.7536 64.08C52.391 64.08 52.0763 64.0293 51.8096 63.928C51.543 63.8213 51.3216 63.6747 51.1456 63.488C50.9696 63.296 50.839 63.0667 50.7536 62.8C50.6683 62.5333 50.6256 62.2347 50.6256 61.904ZM51.5296 61.904C51.5296 62.16 51.5536 62.3973 51.6016 62.616C51.6496 62.8347 51.727 63.024 51.8336 63.184C51.9456 63.344 52.087 63.472 52.2576 63.568C52.4336 63.6587 52.647 63.704 52.8976 63.704C53.2123 63.704 53.471 63.56 53.6736 63.272C53.8763 62.984 53.9776 62.528 53.9776 61.904C53.9776 61.648 53.9536 61.4107 53.9056 61.192C53.8576 60.968 53.7803 60.776 53.6736 60.616C53.5723 60.4507 53.439 60.3227 53.2736 60.232C53.1136 60.1413 52.9163 60.096 52.6816 60.096C52.3296 60.096 52.0496 60.24 51.8416 60.528C51.6336 60.816 51.5296 61.2747 51.5296 61.904ZM56.9899 64L55.4539 60.2H54.9979V59.8H56.9019V60.2H56.3659L57.3259 62.72L57.5339 63.592H57.5739L57.7979 62.72L58.6939 60.2H58.2059V59.8H59.7419V60.2H59.2459L57.8539 64H56.9899ZM63.492 63.448C63.3533 63.6453 63.156 63.8027 62.9 63.92C62.6493 64.032 62.356 64.088 62.02 64.088C61.668 64.088 61.356 64.0373 61.084 63.936C60.8173 63.8293 60.5933 63.6827 60.412 63.496C60.2307 63.304 60.092 63.0747 59.996 62.808C59.9053 62.536 59.86 62.2347 59.86 61.904C59.86 61.1893 60.0387 60.648 60.396 60.28C60.7533 59.9067 61.2547 59.72 61.9 59.72C62.1133 59.72 62.3213 59.7467 62.524 59.8C62.732 59.8533 62.916 59.9413 63.076 60.064C63.236 60.1867 63.364 60.3493 63.46 60.552C63.5613 60.7547 63.612 61.0053 63.612 61.304C63.612 61.3947 63.6067 61.4907 63.596 61.592C63.5853 61.6933 63.5693 61.8 63.548 61.912H60.764C60.764 62.1467 60.7933 62.36 60.852 62.552C60.916 62.744 61.0093 62.9093 61.132 63.048C61.26 63.1867 61.4173 63.296 61.604 63.376C61.7907 63.4507 62.012 63.488 62.268 63.488C62.476 63.488 62.668 63.4533 62.844 63.384C63.0253 63.3147 63.1693 63.2347 63.276 63.144L63.492 63.448ZM61.868 60.096C61.7027 60.096 61.556 60.12 61.428 60.168C61.3053 60.216 61.1987 60.296 61.108 60.408C61.0173 60.52 60.9453 60.6693 60.892 60.856C60.8387 61.0373 60.804 61.264 60.788 61.536H62.716C62.7213 61.488 62.724 61.44 62.724 61.392C62.7293 61.3387 62.732 61.2907 62.732 61.248C62.732 60.896 62.66 60.616 62.516 60.408C62.3773 60.2 62.1613 60.096 61.868 60.096Z" fill="black"/>
</svg>
