<svg width="22" height="23" viewBox="0 0 22 23" fill="none" xmlns="http://www.w3.org/2000/svg">
<path d="M19.25 0.699999L20.3 1.63L2.75 22.21L1.73 21.25L19.25 0.699999ZM0.56 5.74C0.56 4.96 0.69 4.26 0.95 3.64C1.21 3.02 1.57 2.49 2.03 2.05C2.51 1.59 3.06 1.24 3.68 0.999999C4.32 0.759999 5.02 0.64 5.78 0.64C6.54 0.64 7.24 0.749999 7.88 0.969999C8.52 1.17 9.07 1.48 9.53 1.9C9.99 2.32 10.35 2.85 10.61 3.49C10.87 4.13 11 4.88 11 5.74C11 6.52 10.87 7.23 10.61 7.87C10.35 8.49 9.99 9.02 9.53 9.46C9.07 9.9 8.52 10.24 7.88 10.48C7.24 10.72 6.54 10.84 5.78 10.84C5.02 10.84 4.32 10.74 3.68 10.54C3.06 10.32 2.51 10 2.03 9.58C1.57 9.16 1.21 8.63 0.95 7.99C0.69 7.35 0.56 6.6 0.56 5.74ZM3.08 5.74C3.08 6.94 3.31 7.91 3.77 8.65C4.23 9.37 4.9 9.73 5.78 9.73C7.58 9.73 8.48 8.4 8.48 5.74C8.48 3.1 7.58 1.78 5.78 1.78C3.98 1.78 3.08 3.1 3.08 5.74ZM11.15 17.23C11.15 16.45 11.28 15.75 11.54 15.13C11.8 14.51 12.16 13.98 12.62 13.54C13.1 13.08 13.65 12.73 14.27 12.49C14.91 12.25 15.61 12.13 16.37 12.13C17.13 12.13 17.83 12.24 18.47 12.46C19.11 12.66 19.66 12.97 20.12 13.39C20.58 13.81 20.94 14.34 21.2 14.98C21.46 15.62 21.59 16.37 21.59 17.23C21.59 18.01 21.46 18.72 21.2 19.36C20.94 19.98 20.58 20.51 20.12 20.95C19.66 21.39 19.11 21.73 18.47 21.97C17.83 22.21 17.13 22.33 16.37 22.33C15.61 22.33 14.91 22.22 14.27 22C13.65 21.8 13.1 21.49 12.62 21.07C12.16 20.65 11.8 20.12 11.54 19.48C11.28 18.84 11.15 18.09 11.15 17.23ZM13.67 17.23C13.67 18.43 13.9 19.4 14.36 20.14C14.82 20.86 15.49 21.22 16.37 21.22C18.17 21.22 19.07 19.89 19.07 17.23C19.07 14.59 18.17 13.27 16.37 13.27C14.57 13.27 13.67 14.59 13.67 17.23Z" fill="#FF104A"/>
</svg>
