<svg width="13" height="13" viewBox="0 0 13 13" fill="none" xmlns="http://www.w3.org/2000/svg">
<path d="M7.43863 6.48829L12.7419 1.19459C13.0235 0.913514 13.0235 0.491892 12.7419 0.210811C12.4603 -0.0702703 12.0379 -0.0702703 11.7563 0.210811L6.45307 5.5045L1.19674 0.257658C0.915151 -0.0234232 0.49278 -0.0234232 0.211191 0.257658C-0.0703971 0.538739 -0.0703971 0.96036 0.211191 1.24144L5.51444 6.53514L0.211191 11.8288C-0.0703971 12.1099 -0.0703971 12.5315 0.211191 12.8126C0.351986 12.9532 0.5397 13 0.727426 13C0.915151 13 1.10288 12.9532 1.24367 12.8126L6.54693 7.51892L11.7563 12.7658C11.8971 12.9063 12.0848 12.9532 12.2726 12.9532C12.4603 12.9532 12.648 12.9063 12.7888 12.7658C13.0704 12.4847 13.0704 12.0631 12.7888 11.782L7.43863 6.48829Z" fill="#ABABAB"/>
</svg>
