<svg width="15" height="19" viewBox="0 0 15 19" fill="none" xmlns="http://www.w3.org/2000/svg">
<path d="M6.17482 8.52392C6.34833 8.69218 6.55476 8.82572 6.78221 8.91686C7.00965 9.008 7.25361 9.05492 7.5 9.05492C7.74639 9.05492 7.99035 9.008 8.21779 8.91686C8.44523 8.82572 8.65167 8.69218 8.82518 8.52392L14.4245 3.1385C14.6034 2.97113 14.7463 2.77149 14.845 2.551C14.9438 2.33051 14.9964 2.09348 14.9998 1.85344C15.0033 1.6134 14.9576 1.37505 14.8653 1.15201C14.7729 0.928964 14.6359 0.72559 14.4618 0.553499C14.2878 0.381408 14.0803 0.24397 13.851 0.149031C13.6218 0.0540913 13.3753 0.0035104 13.1257 0.000176521C12.8762 -0.00315736 12.6283 0.0408205 12.3964 0.1296C12.1645 0.218379 11.9531 0.35022 11.7742 0.517597L7.5 4.71822L3.22584 0.517597C2.86448 0.179565 2.3783 -0.00655656 1.87427 0.000176521C1.37023 0.0069096 0.889616 0.205946 0.538157 0.553499C0.186698 0.901053 -0.006817 1.36865 0.000183532 1.85344C0.00718406 2.33822 0.214126 2.80047 0.575485 3.1385L6.17482 8.52392ZM11.7742 10.4627L7.5 14.5915L3.22584 10.4627C2.86448 10.1246 2.3783 9.93852 1.87427 9.94525C1.37023 9.95199 0.889616 10.151 0.538157 10.4986C0.186698 10.8461 -0.006817 11.3137 0.000183532 11.7985C0.00718406 12.2833 0.214126 12.7455 0.575485 13.0836L6.17482 18.469C6.34833 18.6373 6.55476 18.7708 6.78221 18.8619C7.00965 18.9531 7.25361 19 7.5 19C7.74639 19 7.99035 18.9531 8.21779 18.8619C8.44523 18.7708 8.65167 18.6373 8.82518 18.469L14.4245 13.0836C14.776 12.7455 14.9734 12.2871 14.9734 11.809C14.9734 11.331 14.776 10.8725 14.4245 10.5345C14.0731 10.1964 13.5964 10.0065 13.0993 10.0065C12.6023 10.0065 12.1256 10.1964 11.7742 10.5345V10.4627Z" fill="#FF3D6C"/>
</svg>
