<svg width="15" height="16" viewBox="0 0 15 16" fill="none" xmlns="http://www.w3.org/2000/svg">
<path d="M12.5 0.799999L13.2 1.42L1.5 15.14L0.82 14.5L12.5 0.799999ZM0.04 4.16C0.04 3.64 0.126667 3.17333 0.3 2.76C0.473333 2.34667 0.713333 1.99333 1.02 1.7C1.34 1.39333 1.70667 1.16 2.12 0.999999C2.54667 0.84 3.01333 0.76 3.52 0.76C4.02667 0.76 4.49333 0.833333 4.92 0.979999C5.34667 1.11333 5.71333 1.32 6.02 1.6C6.32667 1.88 6.56667 2.23333 6.74 2.66C6.91333 3.08667 7 3.58667 7 4.16C7 4.68 6.91333 5.15333 6.74 5.58C6.56667 5.99333 6.32667 6.34667 6.02 6.64C5.71333 6.93333 5.34667 7.16 4.92 7.32C4.49333 7.48 4.02667 7.56 3.52 7.56C3.01333 7.56 2.54667 7.49333 2.12 7.36C1.70667 7.21333 1.34 7 1.02 6.72C0.713333 6.44 0.473333 6.08667 0.3 5.66C0.126667 5.23333 0.04 4.73333 0.04 4.16ZM1.72 4.16C1.72 4.96 1.87333 5.60667 2.18 6.1C2.48667 6.58 2.93333 6.82 3.52 6.82C4.72 6.82 5.32 5.93333 5.32 4.16C5.32 2.4 4.72 1.52 3.52 1.52C2.32 1.52 1.72 2.4 1.72 4.16ZM7.1 11.82C7.1 11.3 7.18667 10.8333 7.36 10.42C7.53333 10.0067 7.77333 9.65333 8.08 9.36C8.4 9.05333 8.76667 8.82 9.18 8.66C9.60667 8.5 10.0733 8.42 10.58 8.42C11.0867 8.42 11.5533 8.49333 11.98 8.64C12.4067 8.77333 12.7733 8.98 13.08 9.26C13.3867 9.54 13.6267 9.89333 13.8 10.32C13.9733 10.7467 14.06 11.2467 14.06 11.82C14.06 12.34 13.9733 12.8133 13.8 13.24C13.6267 13.6533 13.3867 14.0067 13.08 14.3C12.7733 14.5933 12.4067 14.82 11.98 14.98C11.5533 15.14 11.0867 15.22 10.58 15.22C10.0733 15.22 9.60667 15.1467 9.18 15C8.76667 14.8667 8.4 14.66 8.08 14.38C7.77333 14.1 7.53333 13.7467 7.36 13.32C7.18667 12.8933 7.1 12.3933 7.1 11.82ZM8.78 11.82C8.78 12.62 8.93333 13.2667 9.24 13.76C9.54667 14.24 9.99333 14.48 10.58 14.48C11.78 14.48 12.38 13.5933 12.38 11.82C12.38 10.06 11.78 9.18 10.58 9.18C9.38 9.18 8.78 10.06 8.78 11.82Z" fill="#FF104A"/>
</svg>
