<svg width="22" height="23" viewBox="0 0 22 23" fill="none" xmlns="http://www.w3.org/2000/svg">
<path d="M19.25 0.506029L20.3 1.43603L2.75 22.016L1.73 21.056L19.25 0.506029ZM0.56 5.54603C0.56 4.76603 0.69 4.06603 0.95 3.44603C1.21 2.82603 1.57 2.29603 2.03 1.85603C2.51 1.39603 3.06 1.04603 3.68 0.806029C4.32 0.56603 5.02 0.44603 5.78 0.44603C6.54 0.44603 7.24 0.55603 7.88 0.776029C8.52 0.976029 9.07 1.28603 9.53 1.70603C9.99 2.12603 10.35 2.65603 10.61 3.29603C10.87 3.93603 11 4.68603 11 5.54603C11 6.32603 10.87 7.03603 10.61 7.67603C10.35 8.29603 9.99 8.82603 9.53 9.26603C9.07 9.70603 8.52 10.046 7.88 10.286C7.24 10.526 6.54 10.646 5.78 10.646C5.02 10.646 4.32 10.546 3.68 10.346C3.06 10.126 2.51 9.80603 2.03 9.38603C1.57 8.96603 1.21 8.43603 0.95 7.79603C0.69 7.15603 0.56 6.40603 0.56 5.54603ZM3.08 5.54603C3.08 6.74603 3.31 7.71603 3.77 8.45603C4.23 9.17603 4.9 9.53603 5.78 9.53603C7.58 9.53603 8.48 8.20603 8.48 5.54603C8.48 2.90603 7.58 1.58603 5.78 1.58603C3.98 1.58603 3.08 2.90603 3.08 5.54603ZM11.15 17.036C11.15 16.256 11.28 15.556 11.54 14.936C11.8 14.316 12.16 13.786 12.62 13.346C13.1 12.886 13.65 12.536 14.27 12.296C14.91 12.056 15.61 11.936 16.37 11.936C17.13 11.936 17.83 12.046 18.47 12.266C19.11 12.466 19.66 12.776 20.12 13.196C20.58 13.616 20.94 14.146 21.2 14.786C21.46 15.426 21.59 16.176 21.59 17.036C21.59 17.816 21.46 18.526 21.2 19.166C20.94 19.786 20.58 20.316 20.12 20.756C19.66 21.196 19.11 21.536 18.47 21.776C17.83 22.016 17.13 22.136 16.37 22.136C15.61 22.136 14.91 22.026 14.27 21.806C13.65 21.606 13.1 21.296 12.62 20.876C12.16 20.456 11.8 19.926 11.54 19.286C11.28 18.646 11.15 17.896 11.15 17.036ZM13.67 17.036C13.67 18.236 13.9 19.206 14.36 19.946C14.82 20.666 15.49 21.026 16.37 21.026C18.17 21.026 19.07 19.696 19.07 17.036C19.07 14.396 18.17 13.076 16.37 13.076C14.57 13.076 13.67 14.396 13.67 17.036Z" fill="#FF104A"/>
</svg>
