<svg width="35" height="35" viewBox="0 0 35 35" fill="none" xmlns="http://www.w3.org/2000/svg">
<path d="M32.5457 8.27434H25.0672V1.15007C25.0672 0.833411 24.8102 0.576416 24.4935 0.576416H10.5056C10.189 0.576416 9.93196 0.833411 9.93196 1.15007V8.27434H2.45432C2.15602 8.27434 1.90453 8.50747 1.8825 8.80485L0.00184831 33.8077C-0.0100836 33.9665 0.0449868 34.1244 0.152374 34.2391C0.259761 34.3566 0.413041 34.4236 0.573663 34.4236H34.4273C34.5879 34.4236 34.7412 34.3566 34.8477 34.24C34.956 34.1244 35.011 33.9665 34.9991 33.8068L33.1184 8.80485C33.0964 8.50747 32.8449 8.27434 32.5457 8.27434ZM24.4935 11.9099C24.7835 11.9099 25.0194 12.1449 25.0194 12.4331C25.0194 12.7222 24.7835 12.9581 24.4935 12.9581C24.2035 12.9581 23.9676 12.7222 23.9676 12.4331C23.9676 12.1449 24.2035 11.9099 24.4935 11.9099ZM11.0793 1.72463H23.9198V8.27526H11.0793V1.72463ZM10.5056 11.9099C10.7957 11.9099 11.0315 12.1449 11.0315 12.4331C11.0315 12.7222 10.7957 12.9581 10.5056 12.9581C10.2156 12.9581 9.97969 12.7222 9.97969 12.4331C9.97969 12.1449 10.2156 11.9099 10.5056 11.9099ZM1.19137 33.2772L2.98575 9.42256H9.93196V10.8709C9.29223 11.1059 8.83239 11.7153 8.83239 12.434C8.83239 13.3564 9.58318 14.1063 10.5056 14.1063C11.428 14.1063 12.1788 13.3564 12.1788 12.434C12.1788 11.7153 11.719 11.1059 11.0793 10.8709V9.42256H23.9198V10.8709C23.2801 11.1059 22.8203 11.7153 22.8203 12.434C22.8203 13.3564 23.5711 14.1063 24.4935 14.1063C25.4159 14.1063 26.1667 13.3564 26.1667 12.434C26.1667 11.7153 25.7069 11.1059 25.0672 10.8709V9.42256H32.0143L33.8087 33.2772H1.19137Z" fill="white"/>
</svg>
