<svg width="22" height="21" viewBox="0 0 22 21" fill="none" xmlns="http://www.w3.org/2000/svg">
<path d="M16.3354 0C13.706 0 12.1396 1.35852 11.2445 2.71701C10.3495 1.30192 8.7271 0 6.04184 0C2.46149 0 0 3.3396 0 6.3396C0 9.16979 1.45451 10.7547 4.08383 13.6981C6.54532 16.4717 10.5732 20.717 10.6292 20.7736C10.6851 20.8302 10.797 20.8868 10.8529 20.9434C10.9648 21 11.0208 21 11.1327 21C11.2445 21 11.3564 21 11.4124 20.9434C11.5243 20.8868 11.5802 20.8302 11.6361 20.7736C11.6921 20.717 15.6081 16.4717 18.0137 13.6981C20.587 10.7547 21.9856 9.11319 21.9856 6.3396C22.2094 3.28299 19.8038 0 16.3354 0ZM17.0067 12.566C15.1606 14.6604 12.4753 17.6038 11.3005 18.9057C10.0697 17.6038 7.2726 14.6604 5.42648 12.5094C2.68527 9.45282 1.79018 8.32075 1.79018 6.28301C1.79018 4.41508 3.35658 1.64152 6.15373 1.64152C9.84597 1.64152 10.5173 4.86794 10.5173 5.03775C10.5173 5.09436 10.5173 5.09433 10.5173 5.15093V5.20752C10.5173 5.20752 10.5173 5.26418 10.5732 5.26418C10.5732 5.26418 10.5732 5.32077 10.6292 5.32077L10.6851 5.37736C10.6851 5.37736 10.6851 5.43395 10.7411 5.43395L10.797 5.49054C10.797 5.49054 10.797 5.4906 10.8529 5.5472C10.9089 5.5472 10.9089 5.60379 10.9648 5.60379C10.9648 5.60379 10.9648 5.60379 11.0208 5.60379C11.0767 5.60379 11.0767 5.60378 11.1327 5.66038H11.1886C11.1886 5.66038 11.1886 5.66038 11.2445 5.66038H11.3005H11.3564C11.4124 5.66038 11.4124 5.66038 11.4683 5.66038H11.5243C11.5802 5.66038 11.5802 5.66038 11.6361 5.66038H11.6921C11.6921 5.66038 11.748 5.6604 11.748 5.60379C11.748 5.60379 11.804 5.60381 11.804 5.5472L11.8599 5.49054L11.9159 5.43395L11.9718 5.37736L12.0277 5.32077L12.0837 5.26418C12.0837 5.26418 12.0837 5.20752 12.1396 5.20752V5.15093C12.1396 5.09433 12.1396 5.09436 12.1396 5.03775C12.1396 4.92455 12.755 1.64152 16.3913 1.64152C19.1325 1.64152 20.587 4.35848 20.587 6.28301C20.5311 8.37735 19.636 9.50941 17.0067 12.566Z" fill="white"/>
</svg>
