<svg width="14" height="14" viewBox="0 0 14 14" fill="none" xmlns="http://www.w3.org/2000/svg">
<path d="M12.5746 13.9986L7.8076 9.2326C5.65143 10.655 2.76862 10.215 1.13493 8.21415C-0.498754 6.2133 -0.353301 3.30073 1.4716 1.4726C3.29941 -0.353006 6.21231 -0.49909 8.2136 1.13449C10.2149 2.76806 10.6552 5.6512 9.2326 7.8076L13.9976 12.5756L12.5746 13.9986ZM5.0316 2.01259C3.59085 2.01168 2.35009 3.02862 2.06809 4.4415C1.7861 5.85439 2.54142 7.26972 3.87213 7.82195C5.20285 8.37418 6.73834 7.90951 7.53959 6.71211C8.34083 5.51471 8.18467 3.91806 7.1666 2.8986C6.60185 2.32994 5.83305 2.0109 5.0316 2.01259Z" fill="#FF104A"/>
</svg>
